<svg width="14" height="22" viewBox="0 0 14 22" fill="none" xmlns="http://www.w3.org/2000/svg">
<path d="M13.2377 0.60685C13.2377 0.447784 13.1743 0.295234 13.0615 0.182758C12.9486 0.0702812 12.7956 0.00709251 12.636 0.00709251H9.62742C8.11246 -0.068128 6.6292 0.45738 5.50174 1.4688C4.37427 2.48021 3.69426 3.89531 3.61028 5.40491V8.6436H0.601714C0.442129 8.6436 0.289081 8.70679 0.176238 8.81926C0.0633948 8.93174 0 9.08429 0 9.24336V12.3621C0 12.5212 0.0633948 12.6737 0.176238 12.7862C0.289081 12.8987 0.442129 12.9619 0.601714 12.9619H3.61028V20.9986C3.61028 21.1577 3.67368 21.3102 3.78652 21.4227C3.89936 21.5352 4.05241 21.5984 4.212 21.5984H7.82228C7.98186 21.5984 8.13491 21.5352 8.24776 21.4227C8.3606 21.3102 8.42399 21.1577 8.42399 20.9986V12.9619H11.577C11.7108 12.9638 11.8414 12.9212 11.9482 12.8408C12.055 12.7604 12.1319 12.6468 12.1667 12.518L13.0331 9.39929C13.0571 9.31068 13.0603 9.21776 13.0425 9.12771C13.0248 9.03766 12.9865 8.95287 12.9307 8.87987C12.8749 8.80687 12.8031 8.74761 12.7207 8.70664C12.6383 8.66568 12.5476 8.64411 12.4555 8.6436H8.42399V5.40491C8.45393 5.108 8.59382 4.83287 8.81634 4.63325C9.03887 4.43363 9.32805 4.32385 9.62742 4.32535H12.636C12.7956 4.32535 12.9486 4.26216 13.0615 4.14968C13.1743 4.0372 13.2377 3.88465 13.2377 3.72559V0.60685Z" fill="#EF7C00"/>
</svg>
