<svg width="17" height="17" viewBox="0 0 17 17" fill="none" xmlns="http://www.w3.org/2000/svg">
<path d="M3.77779 1.88889C3.77779 2.8919 3.10723 3.75512 1.88795 3.75512C0.740447 3.75512 0 2.94101 0 1.93801C0 0.908558 0.71778 0 1.88889 0C3.06001 0 3.75512 0.859447 3.77779 1.88889ZM0 17V4.72224H3.77779V17H0Z" fill="#EF7C00"/>
<path d="M5.66665 8.91914C5.66665 7.45997 5.61848 6.24069 5.57031 5.18763H8.96465L9.13277 6.81491H9.20455C9.68244 6.04896 10.8535 4.92602 12.8142 4.92602C15.2056 4.92602 17 6.52685 17 9.97125V16.9998H13.2222V10.52C13.2222 9.01453 12.6489 7.86608 11.3333 7.86608C10.3303 7.86608 9.82788 8.67831 9.56438 9.34792C9.46805 9.58781 9.44443 9.92214 9.44443 10.2574V16.9998H5.66665V8.91914Z" fill="#EF7C00"/>
</svg>
