<svg width="23" height="14" viewBox="0 0 23 14" fill="none" xmlns="http://www.w3.org/2000/svg">
<path d="M21.7839 0.943636C21.9397 0.399231 21.7839 0 21.0473 0H18.6074C17.9865 0 17.7028 0.345376 17.5471 0.724703C17.5471 0.724703 16.3065 3.90801 14.5486 5.97206C13.9811 6.57267 13.7219 6.76233 13.4126 6.76233C13.2579 6.76233 13.0332 6.57267 13.0332 6.02826V0.943636C13.0332 0.29035 12.854 0 12.3367 0H8.50261C8.11542 0 7.88177 0.302057 7.88177 0.590065C7.88177 1.20823 8.76073 1.35106 8.85085 3.09316V6.87238C8.85085 7.70011 8.70955 7.85114 8.39802 7.85114C7.57135 7.85114 5.55974 4.65613 4.3659 0.998661C4.13337 0.288008 3.8986 0.00117124 3.27554 0.00117124H0.836687C0.139077 0.00117124 0 0.346546 0 0.725874C0 1.40726 0.826673 4.77906 3.85076 9.23849C5.86682 12.2836 8.7051 13.9344 11.2908 13.9344C12.8407 13.9344 13.0321 13.568 13.0321 12.9358V10.634C13.0321 9.90115 13.18 9.75363 13.6707 9.75363C14.0312 9.75363 14.652 9.94563 16.0995 11.4126C17.7529 13.1524 18.0266 13.9333 18.9556 13.9333H21.3945C22.091 13.9333 22.4392 13.5668 22.239 12.8433C22.0198 12.1233 21.2298 11.0754 20.1817 9.83558C19.6121 9.12844 18.7609 8.36745 18.5017 7.98695C18.1401 7.4964 18.2447 7.27981 18.5017 6.84428C18.5028 6.84545 21.4746 2.44104 21.7839 0.943636Z" fill="#EF7C00"/>
</svg>
